<svg xmlns="http://www.w3.org/2000/svg" width="6.731" height="13.324" viewBox="0 0 6.731 13.324"><path id="facebook" d="M126.9,7.1h1.461v6.013a.215.215,0,0,0,.215.215h2.476a.215.215,0,0,0,.215-.215V7.125h1.679a.215.215,0,0,0,.214-.19l.255-2.214a.215.215,0,0,0-.213-.239h-1.934V3.094c0-.418.225-.63.669-.63H133.2a.215.215,0,0,0,.215-.215V.216A.215.215,0,0,0,133.2,0h-1.743l-.08,0a3.34,3.34,0,0,0-2.184.823,2.29,2.29,0,0,0-.761,2.036V4.481H126.9a.215.215,0,0,0-.215.215V6.882A.215.215,0,0,0,126.9,7.1Z" transform="translate(-126.682)" fill="#232323"></path></svg>