<svg xmlns="http://www.w3.org/2000/svg" width="13.324" height="13.324" viewBox="0 0 13.324 13.324"><g id="Group_1317" data-name="Group 1317" transform="translate(-1400.322 -9489.303)"><path id="Path_4340" data-name="Path 4340" d="M9.355,0H3.969A3.974,3.974,0,0,0,0,3.969V9.355a3.974,3.974,0,0,0,3.969,3.969H9.355a3.974,3.974,0,0,0,3.969-3.969V3.969A3.974,3.974,0,0,0,9.355,0Zm2.629,9.355a2.629,2.629,0,0,1-2.629,2.629H3.969A2.629,2.629,0,0,1,1.34,9.355V3.969A2.629,2.629,0,0,1,3.969,1.34H9.355a2.629,2.629,0,0,1,2.629,2.629V9.355Z" transform="translate(1400.322 9489.303)" fill="#232323"></path><path id="Path_4341" data-name="Path 4341" d="M136.446,133a3.446,3.446,0,1,0,3.446,3.446A3.45,3.45,0,0,0,136.446,133Zm0,5.552a2.106,2.106,0,1,1,2.106-2.106A2.106,2.106,0,0,1,136.446,138.552Z" transform="translate(1270.538 9359.519)" fill="#232323"></path><ellipse id="Ellipse_10" data-name="Ellipse 10" cx="0.826" cy="0.826" rx="0.826" ry="0.826" transform="translate(1409.611 9491.72)" fill="#232323"></ellipse></g></svg>