<svg xmlns="http://www.w3.org/2000/svg" width="50.991" height="45" viewBox="0 0 50.991 45"><g id="Group_5214" data-name="Group 5214" transform="translate(-871.504 -443.496)"><g id="Group_1413" data-name="Group 1413" transform="translate(0 99)"><rect id="Rectangle_989" data-name="Rectangle 989" width="44" height="45" transform="translate(871.504 344.496)" fill="currentColor"></rect><path id="Polygon_25" data-name="Polygon 25" d="M15.741,0,31.482,23.818H0Z" transform="translate(922.495 350.264) rotate(90)" fill="currentColor"></path></g><g id="XMLID_2_" transform="translate(880.414 452.303)"><path id="XMLID_7_" d="M30.178,18A12.984,12.984,0,0,0,17.205,30.843v3.2c-.476.692-.605,1.47-.605,4.022s.908,4.713,2.941,4.713l.086-12.584c0-4.757,5.319-9.859,10.551-9.859s10.551,5.1,10.551,9.859l.086,12.584c2.032,0,2.941-2.162,2.941-4.713s-.086-3.33-.605-4.022v-3.2A12.984,12.984,0,0,0,30.178,18ZM21.919,32.14a1.048,1.048,0,0,0-1.168.908v9.946c0,.519.562.908,1.168.908H24.3a1.048,1.048,0,0,0,1.168-.908V33.048c0-.519-.562-.908-1.168-.908Zm14.14,0a1.048,1.048,0,0,0-1.168.908v9.946c0,.519.562.908,1.168.908h2.378a1.048,1.048,0,0,0,1.168-.908V33.048c0-.519-.562-.908-1.168-.908Z" transform="translate(-16.6 -18)" fill="#fff"></path></g></g></svg>