<svg xmlns="http://www.w3.org/2000/svg" width="15" height="11.292" viewBox="0 0 15 11.292"><g id="Group_1405" data-name="Group 1405" transform="translate(-321.931 -192.784)"><path id="Path_4346" data-name="Path 4346" d="M322,251.317l.864.863,3.044,3.046c.744.745,1.5,1.477,2.231,2.236a1.759,1.759,0,0,0,2.563.014q2.688-2.713,5.4-5.407c.251-.251.5-.5.789-.786a1.445,1.445,0,0,1,.036.211c0,.579,0,1.157,0,1.736,0,2.125,0,4.25,0,6.376a1.068,1.068,0,0,1-.316.84.9.9,0,0,1-.587.271c-.079,0-.158.008-.236.008q-6.36,0-12.72,0a1.027,1.027,0,0,1-.944-.424,1.462,1.462,0,0,1-.179-.444,1.485,1.485,0,0,1-.014-.361q0-3.977,0-7.954c0-.074.011-.148.017-.222Z" transform="translate(0 -56.653)" fill="currentColor"></path><path id="Path_4347" data-name="Path 4347" d="M333.292,192.786c2.125,0,4.25,0,6.375,0a1.062,1.062,0,0,1,.9.388c.133.166.134.19-.016.34l-3.021,3.02-3.577,3.578a.9.9,0,0,1-.648.339.824.824,0,0,1-.615-.262q-.863-.865-1.728-1.727l-4.913-4.915c-.184-.184-.187-.233-.009-.425a1.026,1.026,0,0,1,.8-.335c.852.006,1.7,0,2.556,0Z" transform="translate(-3.851 0)" fill="currentColor"></path></g></svg>