<svg xmlns="http://www.w3.org/2000/svg" width="10.802" height="13.918" viewBox="0 0 10.802 13.918"><path id="Path_4342" data-name="Path 4342" d="M30.458,9.793a11.15,11.15,0,0,1-1.924,4.056.183.183,0,0,1-.247.038.278.278,0,0,1-.28-.269,17.938,17.938,0,0,1,.7-6.144,11.087,11.087,0,0,1,.417-1.115,2.071,2.071,0,0,1,.523-2.543,1.106,1.106,0,0,1,1.85.436,6.5,6.5,0,0,1-.414,3.615c.17.1.31.227.5.323a1.725,1.725,0,0,0,1.529.036,1.651,1.651,0,0,0,.425-.269,3.705,3.705,0,0,0,.63-1.052c.066-.2.123-.4.181-.608a3.314,3.314,0,0,0-2.294-3.949,3.223,3.223,0,0,0-3.771,1.1A3.939,3.939,0,0,0,27.9,6.258,1.849,1.849,0,0,1,28.151,7.4a.561.561,0,0,1-.1.189.773.773,0,0,1-1.061.071,1.2,1.2,0,0,1-.312-.378c-1.332-1.3-.274-4.237.729-5.412A5.611,5.611,0,0,1,34.283.678,5.468,5.468,0,0,1,36.451,7.4C35.533,9.532,32.584,10.9,30.458,9.793Z" transform="translate(-26.056 0)" fill="#232323"></path></svg>